<svg version="1" xmlns="http://www.w3.org/2000/svg" width="1030.667" height="1030.667" viewBox="0 0 773.000000 773.000000"><path d="M32.3 10.8c.4 5.9.8 12 1.1 13.7.8 6.1 1.7 15 2.1 20.9.2 3.4.6 8.6.9 11.6.5 5.1 1 13.4 2.1 33 .9 15.7 1.6 27.8 2 36 .9 19.6 1.6 30.9 2 37.5.3 3.8.8 11 1.1 16 .6 10.3 1.1 19 1.8 29 .3 3.8.8 10.6 1.1 15 .3 4.4.7 11.4 1.1 15.5.6 8.1 1.1 15 1.9 27.5.3 4.4.7 11.6 1 16 .3 4.4.8 11.1 1 15 .2 3.8.7 11.9 1 18 .4 6 .8 15 1 20 .2 4.9.4 9 .5 9 .1 0 1.1 25.6 1.3 34.2.1 4.6.4 8.3.7 8.3.3 0 .6 4.4.6 9.8.2 9.9.8 22.1 2 37.2.3 4.7.8 10.1.9 12 .1 1.9.3 3.5.4 3.5.1 0 .4 2.2.6 5 .5 8.1 2.4 22.8 3.9 31.5.3 1.4 1.2 7 2.1 12.5.9 5.5 1.8 10.2 2 10.5.2.3.6 2.1.9 4 .3 1.9 1.1 5.3 1.7 7.5.5 2.2 1.2 4.9 1.3 6 .5 3.1 5.5 20.8 7.4 26.5.3.8.6 1.9.8 2.5.1.5 1.1 3.5 2.2 6.5 1 3 2 5.9 2.2 6.5.5 2 1.3 4.1 3.1 8.4 1.1 2.4 1.9 4.9 1.9 5.5 0 .6.6 2.2 1.3 3.6.7 1.4 2.6 6.1 4.2 10.5s5.5 12.9 8.8 19c5.2 9.4 8 14.3 16 27 2.9 4.5 9.5 13.6 13.7 18.6 7.3 8.6 25.9 26.9 34.5 33.9 4.4 3.5 8.6 7 9.3 7.7.7.7 2.6 2 4.2 3 1.7.9 3 2.1 3 2.5 0 .4.5.8 1.1.8.8 0 7.9 5 9.9 7 .3.3 1.7 1.2 3.1 2 1.5.8 7.6 4.5 13.5 8.1 24.9 15.1 54.4 27.5 83.6 35 6.4 1.6 12.7 3.2 14 3.4 1.3.3 3.7.8 5.3 1.2 3 .6 3.5.7 9 1.7 1.7.2 4.4.7 6.1 1 3.4.6 7.9 1.2 15.4 2 2.5.3 7 .9 10 1.2 6.1.8 54.7.9 62.5.1 6-.6 15.1-1.7 17.8-2.3 1-.2 4.5-.6 7.6-1 3.1-.3 6.6-1 7.9-1.5 1.2-.5 2.6-.8 3-.7.4.1 2.1-.1 3.7-.5 1.7-.4 4-1 5.3-1.2 10.4-2.3 37.8-10.5 44.7-13.5 1.1-.5 6.5-2.8 12-5.1s10.3-4.6 10.7-5.3c.4-.6.8-.8.8-.4 0 1.1 23.6-11.4 32.5-17.2 1.3-.8 4.5-2.8 7.1-4.4 2.7-1.6 5.3-3.3 5.9-3.8.5-.5 5.1-3.8 10-7.5 18.6-13.6 38-31.3 49.1-44.8 2.3-2.8 5.4-6.4 6.8-8.1 1.4-1.8 2.6-3.7 2.6-4.3 0-.6.3-1.1.8-1.1.4 0 2-2.1 3.7-4.8 1.6-2.6 3.2-4.9 3.6-5.2.3-.3 1.7-2.6 3.1-5.1 4.4-7.9 5.3-9.4 5.8-9.9 1.2-1.2 11.2-22.5 15-32 2.3-5.8 4.8-11.9 5.5-13.5 1.3-3.2 8.9-26.1 12.4-37.9 1.2-3.8 1.9-7.2 1.6-7.4-.3-.3-.1-1 .4-1.6.9-1.2 4.7-17.2 6.6-28.1.2-1.1.6-3 .9-4.1.2-1.2 1.1-6.8 2-12.5.8-5.7 1.7-12 2-13.9.3-1.9.8-4.9 1-6.5.3-1.7.7-6.4 1.1-10.6.3-4.2.7-8.5.9-9.5.2-1.1.7-6.9 1-12.9.4-6.1.9-13.9 1.2-17.5.3-3.6.7-10.8.9-16 1.2-28.3 1.6-36.3 2-44.5.5-8.4.9-16 2-39.5.2-5.2.6-12.9.9-17 .5-7.2.8-11.5 2.1-33 .6-9.3.8-11.4 2-27 .3-4.1.7-10.4 1-14 1.1-19.7 2.3-36.5 2.5-36.5 0 0 .3-3.8.5-8.5s.7-12.3 1-17c.3-4.7.7-12.1 1-16.5.2-4.4.6-13.6 1-20.5s.8-15.4 1-19c.4-6.9 1.2-20.2 2-33.5.4-7.3 1-15.9 2-27.5.2-2.5.7-7.7 1-11.5.3-3.9.7-8.1 1-9.5.3-1.4.8-7.6 1.2-13.8l.6-11.2H386L31.7.1l.6 10.7z"/></svg>