<svg version="1" xmlns="http://www.w3.org/2000/svg" width="1412" height="1412" viewBox="0 0 1059.000000 1059.000000"><path d="M133.9.4c-.2.2-2.2.6-4.4 1-12.6 1.8-21.8 4.7-34.1 10.6-34.6 16.7-58.6 49-65 87.4-1.1 6.7-1.3 76.1-1.3 402.1 0 238 .4 396.6 1 400.5 1.7 12.1 2 13.5 3.9 21.5 8 33.9 27.4 66.7 53.1 89.7 21.1 18.9 44.7 31.9 70.9 39.1 10.9 3 13.3 3.5 28 5.6 7.7 1.2 449.7.9 455-.2 1.9-.4 6-1.2 9-1.8 15.7-3 33.9-9.3 48.5-16.9 7.7-4 19.8-11.3 21.5-13 .3-.3 3.4-2.7 7-5.5 19.1-14.5 38.3-38.8 49.7-62.5 3.6-7.6 9.7-23.8 10.8-28.7 4.3-19.2 5.5-27 6.1-38.7.1-2.8.2-5.8.3-6.6.1-1.3 2.9-1.5 18.9-1.6 17.3 0 36.6-1 38.1-1.8.3-.2 3-.7 5.9-1 12-1.4 32.1-7.2 45.7-13.1 47-20.4 84-55.3 105.3-99.6 11.2-23.2 17.4-44.7 20.1-68.9 1-9.1.9-335.6-.1-340-.4-1.4-.9-4.7-1.3-7.3-.6-3.9-4.3-21-5.9-26.7-3.4-12.4-14.6-37.9-20.6-47-.9-1.4-3-4.5-4.6-7-29.8-46.5-81.2-80.6-135.9-90.1-15.5-2.7-22.2-3.2-45.2-3.3-11.2 0-20.3-.3-20.4-.6 0-.3-.2-16.5-.4-36-.3-32.8-.5-38-2-45-.3-1.4-.7-3.4-.9-4.5-1-5.2-6.1-18.8-9.8-26-12.5-24.6-34.6-45.1-60.1-55.6-5.1-2.1-10.4-4-11.7-4.3-1.4-.3-5.4-1.3-9-2.3C693.9.7 674.9.6 413.9.3 260.2.1 134.2.2 133.9.4zm540.9 117.5c.9.1 1.2 6.7 1.2 29.4v29.3H545.4l-130.6-.1-3.4 9.5c-5.6 15.4-10.1 23.6-16.8 30.5-15 15.1-33 20.6-56.1 17-6-.9-12.4-1.9-14-2.1-2.9-.5-3.2-.1-9.4 10.8-10.7 18.8-19.1 28.4-32.5 37.2-27 17.7-60.4 19.4-88.5 4.5-10-5.3-10.2-5.4-18.4-13-11.2-10.2-18.6-21.2-23.5-34.4-1.9-5.3-2.8-8.6-4.9-18.5-.8-3.8-1-98.3-.2-99.5.5-.7 89.3-.9 263.6-.8 144.5 0 263.4.2 264.1.2zm1 447l-.3 329.6-2.4 6.4c-1.3 3.6-3.3 8.1-4.4 10-2.4 4.3-9.5 13.1-11.9 14.9-.9.7-2.3 1.9-3.1 2.6-5 5.1-18.9 11.1-28.2 12.3-6.3.8-423.6.8-429 0-24-3.5-45-24.3-49.2-48.5-.6-3.9-1.1-565.8-.5-567.9.3-.9 1.6-.4 4.1 1.5 3.9 3.1 18.8 12.2 19.8 12.2.3 0 3 1.1 6 2.5 17.7 8.4 37.9 12.4 60.8 12 16.5-.3 20.9-.9 36.4-5 8.4-2.2 12.7-3.8 24.1-9.3 18.9-9 34.3-21 50-38.9l4.5-5.2 8-.5c36-2.2 69.7-22 89.9-52.7l3.6-5.5h222l-.2 329.5zm169-268.1c4.6 1.3 9.1 2.7 10 3.2.9.5 4 1.9 6.7 3.1 25.2 11.3 44.8 38.4 49.2 68 .8 5.9.8 310-.1 316.4-.5 4.3-1.2 7.6-3.1 14.5-4.1 15.8-15.4 32-31.2 45-5.1 4.2-20.6 12.4-25.7 13.5-1.1.2-4.8 1.2-8.1 2.2-5.2 1.4-12.5 1.7-56.7 1.9l-50.8.3V294.1l50.8.3c49 .2 51 .3 59 2.4z"/><path d="M285 413.1c-8.1 2.4-16.1 10.3-19 18.8-1.6 4.7-1.7 18.2-1.6 187.3l.1 182.3 2.4 4.8c7.4 15 24.9 21.4 39.4 14.3 6-2.9 10.4-7.3 13.9-13.9l2.3-4.2v-369l-2.2-4.5c-5.1-10.3-13.9-16.1-25.2-16.6-3.6-.2-8.2.1-10.1.7zM401.7 413.5c-5.3 2-10.9 6.2-14 10.6-6.1 8.4-5.7-4.7-5.4 195.3l.2 183.1 2.4 4.5c7.6 14.4 24.1 20.3 38.5 13.7 6.6-3 11.4-7.8 14.9-14.7l2.2-4.5v-367l-2.1-4.6c-3-6.4-8.6-12.3-14.2-15-5.9-2.8-17-3.5-22.5-1.4zM519.7 413.4c-8.8 3.3-15.8 10.4-18.8 19.1-1.8 5.4-2.2 360-.4 368.1 1.4 6.2 4.4 11.2 9.2 15.5 15 13.1 37.2 8.2 46-10.1l2.7-5.5v-365l-2.2-4.8c-5.3-11.8-13.7-17.8-25.6-18.4-4.5-.2-8.5.2-10.9 1.1z"/></svg>