<svg xmlns="http://www.w3.org/2000/svg" version="1" viewBox="0 0 1059 1059">
  <path d="M134 0l-4 1a118 118 0 0 0-99 98c-2 7-2 77-2 403l1 400 4 22a178 178 0 0 0 152 134h455l9-2a188 188 0 0 0 70-30l7-6a183 183 0 0 0 61-91l6-38v-7c0-1 3-2 19-2a284 284 0 0 0 44-2 206 206 0 0 0 171-182V358l-2-7-5-27c-4-12-15-38-21-47l-5-7a207 207 0 0 0-181-93l-20-1-1-36a236 236 0 0 0-2-50l-10-26a120 120 0 0 0-81-62L414 0H134zm541 118l1 29v30H415l-4 9c-5 15-10 24-16 31a60 60 0 0 1-57 17l-14-3c-2 0-3 0-9 11a95 95 0 0 1-32 37 86 86 0 0 1-89 5c-10-5-10-5-18-13a85 85 0 0 1-29-53v-99l264-1h264zm1 447l-1 330-2 6-4 10a78 78 0 0 1-15 17c-5 5-19 11-28 13H197c-24-4-45-25-50-49V324l4 2a159 159 0 0 0 26 14c17 9 38 13 61 12 16 0 20 0 36-5 8-2 13-3 24-9 19-9 34-21 50-39l5-5h8c36-3 69-22 89-53l4-6h222v330zm169-268a93 93 0 0 1 17 6c25 11 44 38 49 68v316l-3 15a91 91 0 0 1-57 59l-9 2-56 2h-51V294h51c49 1 51 1 59 3z"/>
  <path d="M285 413c-8 3-16 10-19 19-2 5-2 18-2 187v183l3 4c7 15 25 22 39 15 6-3 11-8 14-14l2-5V433l-2-4c-5-10-14-16-25-17l-10 1zm117 1c-6 2-11 6-14 10-6 9-6-5-6 195l1 184 2 4c7 14 24 20 38 14 7-3 12-8 15-15l2-4V435l-2-5c-3-6-8-12-14-15s-17-4-22-1zm118-1c-9 4-16 11-19 19-2 6-2 361 0 369 1 6 4 11 9 15 15 13 37 8 46-10l2-5V436l-2-5c-5-12-13-18-25-19l-11 1z"/>
</svg>
