<svg xmlns="http://www.w3.org/2000/svg" width="82.781" height="51.01" fill="#da131a">
  <path d="M82.78 18.07v3.51H37.46v-3.51c0-.36.29-.65.65-.65h44.02c.36 0 .65.29.65.65zM75.66 42.07c.01.181.021.36.021.54 0 .36-.29.65-.65.65s-.65-.29-.65-.65c0-.18-.01-.359-.02-.54-.29-4.979-4.42-8.95-9.46-8.95V31.4h16.38v-9.82h1.5v19.84c0 .35-.29.649-.65.649H75.66z"/>
  <path d="M73.03 42.74c0 4.49-3.65 8.141-8.13 8.141-4.49 0-8.14-3.65-8.14-8.141v-.13l.029-.54c.351-4.17 3.851-7.46 8.11-7.46 4.25 0 7.75 3.29 8.09 7.46.021.181.03.36.03.54.001.05.011.09.011.13zM73.03 14.71V9.55h-4.29v5.16zm5.59 0V9.55h-4.29v5.16zm-33.56 0V9.55h-4.29v5.16zm5.59 0V9.55h-4.29v5.16zm5.6 0V9.55h-4.29v5.16zm5.59 0V9.55h-4.29v5.16zm1.3 0h4.29V9.55h-4.29zM39.47 9.55h-1.36c-.36 0-.65-.29-.65-.65s.29-.65.65-.65h44.02c.36 0 .65.29.65.65s-.29.65-.65.65h-2.21v5.16h2.21c.36 0 .65.29.65.65s-.29.65-.65.65H38.11c-.36 0-.65-.29-.65-.65s.29-.65.65-.65h1.36zM26.68 42.88c0 4.479-3.65 8.13-8.14 8.13s-8.14-3.65-8.14-8.13c0-.051.01-.091.01-.141 0-.22.01-.45.04-.67.4-4.109 3.88-7.33 8.09-7.33s7.69 3.221 8.09 7.33c.03.22.04.45.04.67 0 .051.01.091.01.141zM26.43 2.95l-1.97 2.21c-.13.14-.31.21-.49.21-.15 0-.31-.05-.43-.16a.65.65 0 0 1-.05-.92l1.98-2.21c.24-.27.65-.29.91-.05.27.24.29.65.05.92zM21.18.65v2.97c0 .36-.29.65-.65.65-.35 0-.65-.29-.65-.65V.65c0-.36.3-.65.65-.65.36 0 .65.29.65.65zM17.89 4.29c.24.27.22.68-.05.92-.12.11-.28.16-.43.16a.63.63 0 0 1-.48-.21l-1.98-2.21c-.24-.27-.22-.68.05-.92s.68-.22.92.05z"/>
  <path d="M32.09 23.9V13.57c0-.27-.22-.5-.5-.5h-3.84c-.27 0-.5.23-.5.5V23.9c0 .271.23.5.5.5h3.84c.28 0 .5-.23.5-.5zm-7.65-13.32h9.84c.35 0 .65.29.65.65v17.04h2.53v-6.69h1.57v9.82H64.9v1.72c-5.05 0-9.18 3.971-9.47 8.95-.011.181-.03.36-.03.54a.649.649 0 1 1-1.299 0c0-.18.02-.359.029-.54H29.3c.01.22.03.45.03.67 0 .36-.29.65-.65.65s-.65-.29-.65-.65c0-.22-.02-.45-.03-.67-.35-4.92-4.46-8.819-9.46-8.819S9.43 37.15 9.08 42.07c-.01.22-.03.45-.03.67 0 .36-.29.65-.65.65s-.65-.29-.65-.65c0-.22.02-.45.03-.67H2.84c-.2 0-.38-.09-.5-.24L.15 39.15a.61.61 0 0 1-.15-.41v-4.72c0-.35.29-.65.65-.65h1.54v-8.02c.03.01.06.02.09.02h.06l6.05-.979a.49.49 0 0 0 .44-.43l1.44-10.32a.49.49 0 0 0-.11-.39.527.527 0 0 0-.38-.18H6.43L7.5 11.02c.09-.26.34-.44.62-.44h8.51v-1.1a3.905 3.905 0 0 1 7.81 0zm.53 2.99c0-.27-.23-.5-.5-.5H13.28c-.26 0-.47.19-.5.44l-1.34 10.66a.498.498 0 0 0 .5.559h.01l12.53-.33c.27-.01.49-.229.49-.5z"/>
</svg>
