<?xml version="1.0" encoding="UTF-8" standalone="no"?>
<svg xmlns:rdf="http://www.w3.org/1999/02/22-rdf-syntax-ns#" xmlns="http://www.w3.org/2000/svg" enable-background="new 0 0 100 100" xml:space="preserve" height="51.01" width="82.781" version="1.1" y="0px" x="0px" xmlns:cc="http://creativecommons.org/ns#" xmlns:dc="http://purl.org/dc/elements/1.1/" viewBox="0 0 82.780998 51.009998" fill="#da131a"><metadata><rdf:RDF><cc:Work rdf:about=""><dc:format>image/svg+xml</dc:format><dc:type rdf:resource="http://purl.org/dc/dcmitype/StillImage"/><dc:title/></cc:Work></rdf:RDF></metadata><g transform="translate(-8.47,-26.98)"><path d="m91.25 45.05v3.51h-45.32v-3.51c0-0.36 0.29-0.65 0.65-0.65h44.02c0.36 0 0.65 0.29 0.65 0.65z"/><path d="m84.13 69.05c0.01 0.181 0.021 0.36 0.021 0.54 0 0.36-0.29 0.65-0.65 0.65s-0.65-0.29-0.65-0.65c0-0.18-0.01-0.359-0.02-0.54-0.29-4.979-4.42-8.95-9.46-8.95v-1.72h16.38v-9.82h1.5v19.84c0 0.35-0.29 0.649-0.65 0.649h-6.471z"/><path d="m81.5 69.72c0 4.49-3.65 8.141-8.13 8.141-4.49 0-8.14-3.65-8.14-8.141v-0.13c0.01-0.18 0.02-0.359 0.029-0.54 0.351-4.17 3.851-7.46 8.11-7.46 4.25 0 7.75 3.29 8.09 7.46 0.021 0.181 0.03 0.36 0.03 0.54 0.001 0.05 0.011 0.09 0.011 0.13z"/><path d="m81.5 41.69v-5.16h-4.29v5.16zm5.59 0v-5.16h-4.29v5.16zm-33.56 0v-5.16h-4.29v5.16zm5.59 0v-5.16h-4.29v5.16zm5.6 0v-5.16h-4.29v5.16zm5.59 0v-5.16h-4.29v5.16zm1.3 0h4.29v-5.16h-4.29zm-23.67-5.16h-1.36c-0.36 0-0.65-0.29-0.65-0.65s0.29-0.65 0.65-0.65h44.02c0.36 0 0.65 0.29 0.65 0.65s-0.29 0.65-0.65 0.65h-2.21v5.16h2.21c0.36 0 0.65 0.29 0.65 0.65s-0.29 0.65-0.65 0.65h-44.02c-0.36 0-0.65-0.29-0.65-0.65s0.29-0.65 0.65-0.65h1.36z"/><path d="m35.15 69.86c0 4.479-3.65 8.13-8.14 8.13s-8.14-3.65-8.14-8.13c0-0.051 0.01-0.091 0.01-0.141 0-0.22 0.01-0.45 0.04-0.67 0.4-4.109 3.88-7.33 8.09-7.33s7.69 3.221 8.09 7.33c0.03 0.22 0.04 0.45 0.04 0.67 0 0.051 0.01 0.091 0.01 0.141z"/><path d="m34.9 29.93-1.97 2.21c-0.13 0.14-0.31 0.21-0.49 0.21-0.15 0-0.31-0.05-0.43-0.16-0.27-0.24-0.29-0.65-0.05-0.92l1.98-2.21c0.24-0.27 0.65-0.29 0.91-0.05 0.27 0.24 0.29 0.65 0.05 0.92z"/><path d="m29.65 27.63v2.97c0 0.36-0.29 0.65-0.65 0.65-0.35 0-0.65-0.29-0.65-0.65v-2.97c0-0.36 0.3-0.65 0.65-0.65 0.36 0 0.65 0.29 0.65 0.65z"/><path d="m26.36 31.27c0.24 0.27 0.22 0.68-0.05 0.92-0.12 0.11-0.28 0.16-0.43 0.16-0.18 0-0.36-0.07-0.48-0.21l-1.98-2.21c-0.24-0.27-0.22-0.68 0.05-0.92s0.68-0.22 0.92 0.05z"/><path d="m40.56 50.88v-10.33c0-0.27-0.22-0.5-0.5-0.5h-3.84c-0.27 0-0.5 0.23-0.5 0.5v10.33c0 0.271 0.23 0.5 0.5 0.5h3.84c0.28 0 0.5-0.23 0.5-0.5zm-7.65-13.32h9.84c0.35 0 0.65 0.29 0.65 0.65v17.04h2.53v-6.69h1.57v9.82h25.87v1.72c-5.05 0-9.18 3.971-9.47 8.95-0.011 0.181-0.03 0.36-0.03 0.54 0 0.36-0.29 0.65-0.65 0.65-0.359 0-0.649-0.29-0.649-0.65 0-0.18 0.02-0.359 0.029-0.54h-24.83c0.01 0.22 0.03 0.45 0.03 0.67 0 0.36-0.29 0.65-0.65 0.65s-0.65-0.29-0.65-0.65c0-0.22-0.02-0.45-0.03-0.67-0.35-4.92-4.46-8.819-9.46-8.819s-9.11 3.899-9.46 8.819c-0.01 0.22-0.03 0.45-0.03 0.67 0 0.36-0.29 0.65-0.65 0.65s-0.65-0.29-0.65-0.65c0-0.22 0.02-0.45 0.03-0.67h-4.94c-0.2 0-0.38-0.09-0.5-0.24l-2.19-2.68c-0.1-0.11-0.15-0.26-0.15-0.41v-4.72c0-0.35 0.29-0.65 0.65-0.65h1.54v-8.02c0.03 0.01 0.06 0.02 0.09 0.02h0.06l6.05-0.979c0.23-0.021 0.41-0.2 0.44-0.43l1.44-10.32c0.02-0.14-0.02-0.29-0.11-0.39-0.1-0.11-0.24-0.18-0.38-0.18h-3.35l1.07-2.051c0.09-0.26 0.34-0.44 0.62-0.44h8.51v-1.1c0-2.15 1.75-3.9 3.9-3.9 2.16 0 3.91 1.75 3.91 3.9zm0.53 2.99c0-0.27-0.23-0.5-0.5-0.5h-11.19c-0.26 0-0.47 0.19-0.5 0.44l-1.34 10.66c-0.02 0.14 0.03 0.29 0.13 0.399 0.09 0.101 0.23 0.16 0.37 0.16h0.01l12.53-0.33c0.27-0.01 0.49-0.229 0.49-0.5z"/></g></svg>
