<svg xmlns="http://www.w3.org/2000/svg" viewBox="0 0 100 100">
  <path fill-rule="evenodd" d="M57 6.6a17 17 0 0 1 11.2 12.7c.6 2.7.8 2.7-1 2.7H62c-2.2 0-1.7.5-3.2-3.7-2.8-7.3-12.1-7-16-3.5a6.5 6.5 0 0 0 0 10c3.8 3.3 8.1 6 12.3 9 4 2.7 8.2 5.2 12 8.1 7.1 5.8 6.7 18.7-1.8 23L62 66.5l3 3.2c7 7.1 4.8 19.2-4.4 23A24 24 0 0 1 39 92c-4.6-2.4-7-6.7-8-11.7-.2-.5-.2-1.3 0-1.3 1.9-.7 3.8-1.1 5.8-1.6 1.1-.4 1.4 1.2 1.8 2.1 1.2 2.1 1.6 3 3.7 5 4.2 4.2 13 3.8 16.3.7 3-3 3.1-8-.5-10.9-4.3-3.5-9-6.4-13.6-9.7-4.2-3-8.6-5.8-12.4-9.3-6.7-6.2-5.2-18 3.9-22.8l1.6-.9-2-2.8c-6.4-8.3-3-18.9 7-22.4 8.5-3 14.5.2 14.5.2zm7.5 47.8c-.4-3.4-2.6-6.1-5.5-8.1-5.1-3.7-10.5-7-15.7-10.5-.6-.3-1.7-.4-2.3-.1-7.3 4.4-7.7 11-1.8 15.5 5.6 4.1 11.5 7.7 17.3 11.5.6.3 1.4.4 2 .2 3-.8 6-5.1 6-8.5z" clip-rule="evenodd"/>
</svg>
